<mxfile host="65bd71144e">
    <diagram id="vAeUh7GE5oxJhPm7hiSd" name="Page-1">
        <mxGraphModel dx="1114" dy="1252" grid="1" gridSize="10" guides="1" tooltips="1" connect="1" arrows="1" fold="1" page="1" pageScale="1" pageWidth="850" pageHeight="1100" background="none" math="0" shadow="0">
            <root>
                <mxCell id="0"/>
                <mxCell id="1" parent="0"/>
                <mxCell id="2" value="" style="whiteSpace=wrap;html=1;fillColor=#758F6C;movable=0;resizable=0;rotatable=0;deletable=0;editable=0;connectable=0;opacity=70;" parent="1" vertex="1">
                    <mxGeometry width="850" height="200" as="geometry"/>
                </mxCell>
                <mxCell id="3" value="&lt;font face=&quot;Verdana&quot; style=&quot;font-size: 36px;&quot;&gt;My&lt;br&gt;Trails&lt;/font&gt;" style="text;strokeColor=none;align=left;fillColor=none;html=1;verticalAlign=middle;whiteSpace=wrap;rounded=0;fontColor=#999900;fontStyle=1;labelBorderColor=none;" parent="1" vertex="1">
                    <mxGeometry x="20" y="20" width="210" height="100" as="geometry"/>
                </mxCell>
                <mxCell id="6" value="&lt;div style=&quot;&quot;&gt;&lt;font face=&quot;Verdana&quot;&gt;&lt;span style=&quot;font-size: 24px;&quot;&gt;Log out&lt;/span&gt;&lt;/font&gt;&lt;/div&gt;" style="text;strokeColor=none;align=right;fillColor=none;html=1;verticalAlign=middle;whiteSpace=wrap;rounded=0;fontColor=#999900;fontStyle=1;labelBorderColor=none;" parent="1" vertex="1">
                    <mxGeometry x="690" y="10" width="150" height="60" as="geometry"/>
                </mxCell>
                <mxCell id="7" value="&lt;div style=&quot;&quot;&gt;&lt;font face=&quot;Verdana&quot;&gt;&lt;span style=&quot;font-size: 24px;&quot;&gt;Parks&lt;span style=&quot;white-space: pre;&quot;&gt;&#9;&lt;/span&gt;Trails&amp;nbsp;&lt;span style=&quot;white-space: pre;&quot;&gt;&#9;&lt;/span&gt;My Reviews&lt;/span&gt;&lt;/font&gt;&lt;/div&gt;" style="text;strokeColor=none;align=center;fillColor=none;html=1;verticalAlign=middle;whiteSpace=wrap;rounded=0;fontColor=#999900;fontStyle=1;labelBorderColor=none;strokeOpacity=100;" parent="1" vertex="1">
                    <mxGeometry x="194" y="120" width="462" height="60" as="geometry"/>
                </mxCell>
                <mxCell id="18" value="&lt;font style=&quot;font-size: 24px;&quot; color=&quot;#758f6c&quot;&gt;Click on a park to view its trails or add your own &lt;u&gt;here&lt;/u&gt;!&lt;/font&gt;" style="text;strokeColor=none;align=left;fillColor=none;html=1;verticalAlign=middle;whiteSpace=wrap;rounded=0;fontColor=#B3B300;" parent="1" vertex="1">
                    <mxGeometry x="40.5" y="280" width="610" height="80" as="geometry"/>
                </mxCell>
                <mxCell id="30" value="" style="shape=table;startSize=0;container=1;collapsible=0;childLayout=tableLayout;fontSize=24;fontColor=#758F6C;strokeColor=default;" parent="1" vertex="1">
                    <mxGeometry x="40.5" y="360" width="770" height="200" as="geometry"/>
                </mxCell>
                <mxCell id="31" value="" style="shape=tableRow;horizontal=0;startSize=0;swimlaneHead=0;swimlaneBody=0;top=0;left=0;bottom=0;right=0;collapsible=0;dropTarget=0;fillColor=none;points=[[0,0.5],[1,0.5]];portConstraint=eastwest;fontSize=24;fontColor=#758F6C;" parent="30" vertex="1">
                    <mxGeometry width="770" height="40" as="geometry"/>
                </mxCell>
                <mxCell id="32" value="Park" style="shape=partialRectangle;html=1;whiteSpace=wrap;connectable=0;overflow=hidden;fillColor=none;top=0;left=0;bottom=0;right=0;pointerEvents=1;fontSize=24;fontColor=#758F6C;fontStyle=1" parent="31" vertex="1">
                    <mxGeometry width="193" height="40" as="geometry">
                        <mxRectangle width="193" height="40" as="alternateBounds"/>
                    </mxGeometry>
                </mxCell>
                <mxCell id="33" value="City" style="shape=partialRectangle;html=1;whiteSpace=wrap;connectable=0;overflow=hidden;fillColor=none;top=0;left=0;bottom=0;right=0;pointerEvents=1;fontSize=24;fontColor=#758F6C;fontStyle=1" parent="31" vertex="1">
                    <mxGeometry x="193" width="192" height="40" as="geometry">
                        <mxRectangle width="192" height="40" as="alternateBounds"/>
                    </mxGeometry>
                </mxCell>
                <mxCell id="34" value="State" style="shape=partialRectangle;html=1;whiteSpace=wrap;connectable=0;overflow=hidden;fillColor=none;top=0;left=0;bottom=0;right=0;pointerEvents=1;fontSize=24;fontColor=#758F6C;fontStyle=1" parent="31" vertex="1">
                    <mxGeometry x="385" width="193" height="40" as="geometry">
                        <mxRectangle width="193" height="40" as="alternateBounds"/>
                    </mxGeometry>
                </mxCell>
                <mxCell id="35" value="Trails" style="shape=partialRectangle;html=1;whiteSpace=wrap;connectable=0;overflow=hidden;fillColor=none;top=0;left=0;bottom=0;right=0;pointerEvents=1;fontSize=24;fontColor=#758F6C;fontStyle=1" parent="31" vertex="1">
                    <mxGeometry x="578" width="192" height="40" as="geometry">
                        <mxRectangle width="192" height="40" as="alternateBounds"/>
                    </mxGeometry>
                </mxCell>
                <mxCell id="36" value="" style="shape=tableRow;horizontal=0;startSize=0;swimlaneHead=0;swimlaneBody=0;top=0;left=0;bottom=0;right=0;collapsible=0;dropTarget=0;fillColor=none;points=[[0,0.5],[1,0.5]];portConstraint=eastwest;fontSize=24;fontColor=#758F6C;" parent="30" vertex="1">
                    <mxGeometry y="40" width="770" height="40" as="geometry"/>
                </mxCell>
                <mxCell id="37" value="Ramsett Park" style="shape=partialRectangle;html=1;whiteSpace=wrap;connectable=0;overflow=hidden;fillColor=none;top=0;left=0;bottom=0;right=0;pointerEvents=1;fontSize=24;fontColor=#758F6C;strokeColor=default;perimeterSpacing=0;fontStyle=4" parent="36" vertex="1">
                    <mxGeometry width="193" height="40" as="geometry">
                        <mxRectangle width="193" height="40" as="alternateBounds"/>
                    </mxGeometry>
                </mxCell>
                <mxCell id="38" value="Pawnee" style="shape=partialRectangle;html=1;whiteSpace=wrap;connectable=0;overflow=hidden;fillColor=none;top=0;left=0;bottom=0;right=0;pointerEvents=1;fontSize=24;fontColor=#758F6C;strokeColor=default;perimeterSpacing=0;" parent="36" vertex="1">
                    <mxGeometry x="193" width="192" height="40" as="geometry">
                        <mxRectangle width="192" height="40" as="alternateBounds"/>
                    </mxGeometry>
                </mxCell>
                <mxCell id="39" value="IN" style="shape=partialRectangle;html=1;whiteSpace=wrap;connectable=0;overflow=hidden;fillColor=none;top=0;left=0;bottom=0;right=0;pointerEvents=1;fontSize=24;fontColor=#758F6C;strokeColor=default;perimeterSpacing=0;" parent="36" vertex="1">
                    <mxGeometry x="385" width="193" height="40" as="geometry">
                        <mxRectangle width="193" height="40" as="alternateBounds"/>
                    </mxGeometry>
                </mxCell>
                <mxCell id="40" value="3" style="shape=partialRectangle;html=1;whiteSpace=wrap;connectable=0;overflow=hidden;fillColor=none;top=0;left=0;bottom=0;right=0;pointerEvents=1;fontSize=24;fontColor=#758F6C;strokeColor=default;perimeterSpacing=0;" parent="36" vertex="1">
                    <mxGeometry x="578" width="192" height="40" as="geometry">
                        <mxRectangle width="192" height="40" as="alternateBounds"/>
                    </mxGeometry>
                </mxCell>
                <mxCell id="41" value="" style="shape=tableRow;horizontal=0;startSize=0;swimlaneHead=0;swimlaneBody=0;top=0;left=0;bottom=0;right=0;collapsible=0;dropTarget=0;fillColor=none;points=[[0,0.5],[1,0.5]];portConstraint=eastwest;fontSize=24;fontColor=#758F6C;" parent="30" vertex="1">
                    <mxGeometry y="80" width="770" height="40" as="geometry"/>
                </mxCell>
                <mxCell id="42" value="Jellystone Park" style="shape=partialRectangle;html=1;whiteSpace=wrap;connectable=0;overflow=hidden;fillColor=none;top=0;left=0;bottom=0;right=0;pointerEvents=1;fontSize=24;fontColor=#758F6C;fontStyle=4" parent="41" vertex="1">
                    <mxGeometry width="193" height="40" as="geometry">
                        <mxRectangle width="193" height="40" as="alternateBounds"/>
                    </mxGeometry>
                </mxCell>
                <mxCell id="43" value="Yellowstone" style="shape=partialRectangle;html=1;whiteSpace=wrap;connectable=0;overflow=hidden;fillColor=none;top=0;left=0;bottom=0;right=0;pointerEvents=1;fontSize=24;fontColor=#758F6C;" parent="41" vertex="1">
                    <mxGeometry x="193" width="192" height="40" as="geometry">
                        <mxRectangle width="192" height="40" as="alternateBounds"/>
                    </mxGeometry>
                </mxCell>
                <mxCell id="44" value="WY" style="shape=partialRectangle;html=1;whiteSpace=wrap;connectable=0;overflow=hidden;fillColor=none;top=0;left=0;bottom=0;right=0;pointerEvents=1;fontSize=24;fontColor=#758F6C;" parent="41" vertex="1">
                    <mxGeometry x="385" width="193" height="40" as="geometry">
                        <mxRectangle width="193" height="40" as="alternateBounds"/>
                    </mxGeometry>
                </mxCell>
                <mxCell id="45" value="8" style="shape=partialRectangle;html=1;whiteSpace=wrap;connectable=0;overflow=hidden;fillColor=none;top=0;left=0;bottom=0;right=0;pointerEvents=1;fontSize=24;fontColor=#758F6C;" parent="41" vertex="1">
                    <mxGeometry x="578" width="192" height="40" as="geometry">
                        <mxRectangle width="192" height="40" as="alternateBounds"/>
                    </mxGeometry>
                </mxCell>
                <mxCell id="51" style="shape=tableRow;horizontal=0;startSize=0;swimlaneHead=0;swimlaneBody=0;top=0;left=0;bottom=0;right=0;collapsible=0;dropTarget=0;fillColor=none;points=[[0,0.5],[1,0.5]];portConstraint=eastwest;fontSize=24;fontColor=#758F6C;" parent="30" vertex="1">
                    <mxGeometry y="120" width="770" height="40" as="geometry"/>
                </mxCell>
                <mxCell id="52" value="Jurassic Park" style="shape=partialRectangle;html=1;whiteSpace=wrap;connectable=0;overflow=hidden;fillColor=none;top=0;left=0;bottom=0;right=0;pointerEvents=1;fontSize=24;fontColor=#758F6C;fontStyle=4" parent="51" vertex="1">
                    <mxGeometry width="193" height="40" as="geometry">
                        <mxRectangle width="193" height="40" as="alternateBounds"/>
                    </mxGeometry>
                </mxCell>
                <mxCell id="53" value="Los Angeles" style="shape=partialRectangle;html=1;whiteSpace=wrap;connectable=0;overflow=hidden;fillColor=none;top=0;left=0;bottom=0;right=0;pointerEvents=1;fontSize=24;fontColor=#758F6C;" parent="51" vertex="1">
                    <mxGeometry x="193" width="192" height="40" as="geometry">
                        <mxRectangle width="192" height="40" as="alternateBounds"/>
                    </mxGeometry>
                </mxCell>
                <mxCell id="54" value="CA" style="shape=partialRectangle;html=1;whiteSpace=wrap;connectable=0;overflow=hidden;fillColor=none;top=0;left=0;bottom=0;right=0;pointerEvents=1;fontSize=24;fontColor=#758F6C;" parent="51" vertex="1">
                    <mxGeometry x="385" width="193" height="40" as="geometry">
                        <mxRectangle width="193" height="40" as="alternateBounds"/>
                    </mxGeometry>
                </mxCell>
                <mxCell id="55" value="2" style="shape=partialRectangle;html=1;whiteSpace=wrap;connectable=0;overflow=hidden;fillColor=none;top=0;left=0;bottom=0;right=0;pointerEvents=1;fontSize=24;fontColor=#758F6C;" parent="51" vertex="1">
                    <mxGeometry x="578" width="192" height="40" as="geometry">
                        <mxRectangle width="192" height="40" as="alternateBounds"/>
                    </mxGeometry>
                </mxCell>
                <mxCell id="46" style="shape=tableRow;horizontal=0;startSize=0;swimlaneHead=0;swimlaneBody=0;top=0;left=0;bottom=0;right=0;collapsible=0;dropTarget=0;fillColor=none;points=[[0,0.5],[1,0.5]];portConstraint=eastwest;fontSize=24;fontColor=#758F6C;" parent="30" vertex="1">
                    <mxGeometry y="160" width="770" height="40" as="geometry"/>
                </mxCell>
                <mxCell id="47" value="The Shire" style="shape=partialRectangle;html=1;whiteSpace=wrap;connectable=0;overflow=hidden;fillColor=none;top=0;left=0;bottom=0;right=0;pointerEvents=1;fontSize=24;fontColor=#758F6C;fontStyle=4" parent="46" vertex="1">
                    <mxGeometry width="193" height="40" as="geometry">
                        <mxRectangle width="193" height="40" as="alternateBounds"/>
                    </mxGeometry>
                </mxCell>
                <mxCell id="48" value="Hobbiton" style="shape=partialRectangle;html=1;whiteSpace=wrap;connectable=0;overflow=hidden;fillColor=none;top=0;left=0;bottom=0;right=0;pointerEvents=1;fontSize=24;fontColor=#758F6C;" parent="46" vertex="1">
                    <mxGeometry x="193" width="192" height="40" as="geometry">
                        <mxRectangle width="192" height="40" as="alternateBounds"/>
                    </mxGeometry>
                </mxCell>
                <mxCell id="49" value="NZ" style="shape=partialRectangle;html=1;whiteSpace=wrap;connectable=0;overflow=hidden;fillColor=none;top=0;left=0;bottom=0;right=0;pointerEvents=1;fontSize=24;fontColor=#758F6C;" parent="46" vertex="1">
                    <mxGeometry x="385" width="193" height="40" as="geometry">
                        <mxRectangle width="193" height="40" as="alternateBounds"/>
                    </mxGeometry>
                </mxCell>
                <mxCell id="50" value="15" style="shape=partialRectangle;html=1;whiteSpace=wrap;connectable=0;overflow=hidden;fillColor=none;top=0;left=0;bottom=0;right=0;pointerEvents=1;fontSize=24;fontColor=#758F6C;" parent="46" vertex="1">
                    <mxGeometry x="578" width="192" height="40" as="geometry">
                        <mxRectangle width="192" height="40" as="alternateBounds"/>
                    </mxGeometry>
                </mxCell>
                <mxCell id="57" value="&lt;font color=&quot;#758f6c&quot;&gt;&lt;span style=&quot;font-size: 32px;&quot;&gt;&lt;u&gt;All Parks&lt;/u&gt;&lt;/span&gt;&lt;/font&gt;" style="text;strokeColor=none;align=left;fillColor=none;html=1;verticalAlign=middle;whiteSpace=wrap;rounded=0;fontColor=#B3B300;" vertex="1" parent="1">
                    <mxGeometry x="40.5" y="230" width="170" height="50" as="geometry"/>
                </mxCell>
            </root>
        </mxGraphModel>
    </diagram>
</mxfile>